<?xml version="1.0" encoding="UTF-8"?>
<svg version="1.1" xmlns="http://www.w3.org/2000/svg" width="444" height="438">
<path d="M0 0 C1.12970718 -0.00708481 2.25941437 -0.01416962 3.4233551 -0.02146912 C4.6484227 -0.0189917 5.8734903 -0.01651428 7.13568115 -0.01396179 C8.43722641 -0.01907272 9.73877167 -0.02418365 11.07975769 -0.02944946 C14.63990638 -0.04280717 18.19994868 -0.04342149 21.76011753 -0.04088616 C24.73939319 -0.03981374 27.71864757 -0.04470701 30.69791865 -0.04949158 C37.73269042 -0.06057672 44.76740879 -0.06103051 51.80218506 -0.05497742 C59.04011767 -0.04894481 66.27785554 -0.06123268 73.51575494 -0.08254749 C79.74529256 -0.10021286 85.97476848 -0.10615689 92.20433021 -0.10290974 C95.91803518 -0.10110377 99.63160139 -0.10366352 103.34528351 -0.11762428 C107.49299067 -0.13263356 111.64030669 -0.12318954 115.7880249 -0.11161804 C117.00499557 -0.11926178 118.22196625 -0.12690552 119.47581482 -0.13478088 C132.78632625 -0.05295337 143.44296038 3.79395294 153.40814209 12.76069641 C166.07669946 26.22585678 166.53699219 43.17203812 166.48626709 60.63569641 C166.48761834 62.29373735 166.48956268 63.9517779 166.49206543 65.6098175 C166.49499508 69.06574823 166.49078922 72.52157478 166.48138428 75.97749329 C166.46999107 80.37486569 166.47656221 84.77199382 166.48852921 89.1693573 C166.49580654 92.58745618 166.49343312 96.00549853 166.48827362 99.42359924 C166.48695331 101.04367605 166.48852706 102.66375823 166.49323273 104.28382874 C166.53206197 121.40266495 165.20596529 136.98155454 153.15814209 150.19819641 C145.48426407 157.27668734 135.17739428 162.3692432 124.68179321 162.40113831 C123.55483536 162.40684845 122.4278775 162.41255859 121.26676941 162.41844177 C119.41838219 162.42011856 119.41838219 162.42011856 117.53265381 162.42182922 C116.2314006 162.42679413 114.9301474 162.43175903 113.58946228 162.43687439 C110.02096019 162.44997853 106.45247691 162.45643995 102.88395452 162.46088505 C100.65128294 162.46382016 98.41861644 162.46792588 96.18594742 162.47238922 C89.19137944 162.48606152 82.19682315 162.49572839 75.20224273 162.49959111 C67.14549666 162.5040655 59.08892079 162.52158562 51.03222644 162.55059171 C44.79424569 162.57226496 38.55631262 162.58229846 32.31829464 162.58363223 C28.5978402 162.58467662 24.87754578 162.59050528 21.1571312 162.60845184 C16.99964976 162.62811629 12.84252052 162.62362117 8.68499756 162.61714172 C7.4648848 162.62635651 6.24477203 162.63557129 4.98768616 162.64506531 C-8.01538271 162.58175772 -18.89044369 158.9928934 -28.52935791 150.01069641 C-34.33718777 143.73824017 -37.70101695 137.15057078 -39.95513916 128.92085266 C-40.47394653 127.04538757 -40.47394653 127.04538757 -41.00323486 125.1320343 C-41.25935547 124.1844928 -41.51547607 123.23695129 -41.77935791 122.26069641 C-42.44032974 122.59451324 -43.10130157 122.92833008 -43.78230286 123.27226257 C-50.03144178 126.42696772 -56.2834993 129.57579505 -62.53884983 132.71816063 C-65.75418723 134.3336358 -68.96837698 135.95130985 -72.17999268 137.57417297 C-75.28313291 139.14211776 -78.38922244 140.7040716 -81.49738884 142.26202774 C-83.25136055 143.14310764 -85.00227634 144.03026256 -86.75312805 144.91752625 C-95.96591211 149.52488421 -103.38818503 152.72714054 -113.77935791 150.26069641 C-120.39820853 147.30877075 -124.79352347 142.84552772 -127.77935791 136.26069641 C-128.61685802 133.42110241 -128.90958543 130.87891207 -128.92652893 127.92323303 C-128.93368423 127.06263779 -128.94083954 126.20204254 -128.94821167 125.31536865 C-128.95090057 124.37919205 -128.95358948 123.44301544 -128.95635986 122.47846985 C-128.96293106 121.48611832 -128.96950226 120.49376678 -128.97627258 119.47134399 C-128.99598163 116.18758568 -129.00766268 112.90387304 -129.01763916 109.62007141 C-129.02171469 108.49737099 -129.02579021 107.37467056 -129.02998924 106.21794891 C-129.05083941 100.27598251 -129.06514592 94.33403913 -129.07452393 88.39204407 C-129.08558823 82.26089762 -129.1199918 76.13011409 -129.15969563 69.99909592 C-129.18586219 65.27895948 -129.19421581 60.55890955 -129.1978054 55.83870697 C-129.20267093 53.57893166 -129.21428388 51.3191602 -129.2328434 49.05945587 C-129.25723573 45.89284626 -129.25626933 42.72717624 -129.24932861 39.5605011 C-129.26213867 38.63242142 -129.27494873 37.70434174 -129.28814697 36.74813843 C-129.23172051 29.66316033 -127.52018427 24.38839886 -122.81451416 19.01850891 C-122.1635376 18.47968079 -121.51256104 17.94085266 -120.84185791 17.38569641 C-120.19345947 16.83139954 -119.54506104 16.27710266 -118.87701416 15.70600891 C-113.39355453 11.92783375 -107.48990196 10.92960644 -100.92340088 11.77778625 C-93.29414772 13.49614913 -86.21265133 17.85883838 -79.32965088 21.43208313 C-75.33382896 23.49017047 -71.31219277 25.49112072 -67.28326416 27.48335266 C-61.60492446 30.29599153 -55.92814856 33.11150196 -50.26373291 35.95210266 C-49.08520752 36.54192932 -47.90668213 37.13175598 -46.69244385 37.73945618 C-43.77935791 39.26069641 -43.77935791 39.26069641 -40.77935791 41.26069641 C-40.69685791 39.98194641 -40.61435791 38.70319641 -40.52935791 37.38569641 C-39.16619801 25.63304757 -32.84175398 15.99034187 -23.73248291 8.60444641 C-16.68455935 3.755475 -8.63515269 0.01814384 0 0 Z M-8.1230011 38.02082825 C-10.06824584 41.82576717 -10.33809182 44.92427372 -10.28106689 49.09858704 C-10.28646988 49.86035751 -10.29187286 50.62212799 -10.29743958 51.40698242 C-10.30988846 53.91070599 -10.29346239 56.41327091 -10.27545166 58.91694641 C-10.27560674 60.66519735 -10.27709718 62.41344863 -10.27986145 64.16169739 C-10.28124372 67.82001504 -10.2687164 71.47793981 -10.24591064 75.13618469 C-10.21752646 79.81693062 -10.2202656 84.49702409 -10.23300076 89.1778183 C-10.23996778 92.78616371 -10.23215698 96.39435928 -10.21974373 100.00268555 C-10.21523917 101.72819443 -10.2148837 103.45371944 -10.21880913 105.17922974 C-10.22173145 107.59408845 -10.20516655 110.00805948 -10.18341064 112.42280579 C-10.18791229 113.1305162 -10.19241394 113.83822662 -10.197052 114.56738281 C-10.11127329 120.32048719 -8.5233552 124.24419955 -4.77935791 128.57319641 C-1.56179797 131.28801261 1.19751945 131.3878061 5.24855042 131.40113831 C6.28735855 131.40684845 7.32616669 131.41255859 8.39645386 131.41844177 C10.10537308 131.42011856 10.10537308 131.42011856 11.84881592 131.42182922 C13.64918053 131.42927658 13.64918053 131.42927658 15.48591614 131.43687439 C18.77944101 131.44898352 22.07290239 131.45644136 25.36644197 131.46088505 C27.4250346 131.46381765 29.48362169 131.46792283 31.54221153 131.47238922 C37.98575273 131.48606181 44.42928123 131.49572946 50.87283593 131.49959111 C58.30592253 131.5040705 65.7388251 131.52161372 73.17185575 131.55059171 C78.92058621 131.5722238 84.66926496 131.58229622 90.41803569 131.58363223 C93.84998348 131.58467923 97.28175823 131.59056441 100.7136631 131.60845184 C104.54401244 131.62548855 108.37391291 131.62363754 112.20428467 131.61714172 C113.33749146 131.62635651 114.47069824 131.63557129 115.63824463 131.64506531 C123.38972864 131.64469253 123.38972864 131.64469253 130.22064209 128.26069641 C134.15137541 123.76322144 134.80190452 119.93436951 134.73822021 114.14741516 C134.74522949 113.35638397 134.75223877 112.56535278 134.75946045 111.75035095 C134.77698995 109.14927009 134.76543619 106.54928732 134.75189209 103.94819641 C134.75458847 102.13268323 134.7584721 100.31717146 134.76348877 98.50166321 C134.76937697 94.70212515 134.76084284 90.90296399 134.74212646 87.10346985 C134.71933722 82.24101764 134.73246395 77.37944864 134.75641632 72.51702881 C134.77089271 68.769703 134.76625989 65.02258548 134.75590515 61.2752533 C134.75324295 59.48275141 134.75648977 57.69023042 134.76582336 55.89775085 C134.77601952 53.38931929 134.76044634 50.88230413 134.73822021 48.37397766 C134.74631714 47.63821503 134.75441406 46.90245239 134.76275635 46.14439392 C134.67942139 41.04987522 133.5692295 38.09209041 130.22064209 34.26069641 C124.78738112 30.24377201 118.72733208 30.83081265 112.25189209 30.85664368 C111.05121094 30.84978043 109.85052979 30.84291718 108.61346436 30.83584595 C105.33241723 30.82071313 102.05172754 30.81907482 98.7706604 30.82478833 C96.02710304 30.82788562 93.28359677 30.82178188 90.54004669 30.81574959 C84.06634748 30.80171994 77.59278029 30.80325307 71.11907959 30.81465149 C64.44902898 30.82613637 57.77938029 30.81204766 51.10938263 30.78525501 C45.37330552 30.76307983 39.63735441 30.75646454 33.90123749 30.76233143 C30.47936878 30.76569729 27.05775779 30.76331076 23.63592529 30.7460804 C19.82010931 30.73121415 16.0051802 30.74181664 12.18939209 30.75898743 C11.06089844 30.74931946 9.93240479 30.73965149 8.76971436 30.72969055 C1.0528106 30.80245568 -2.97263991 31.95519677 -8.1230011 38.02082825 Z M-97.77935791 48.26069641 C-97.77935791 70.04069641 -97.77935791 91.82069641 -97.77935791 114.26069641 C-85.39773362 108.39571648 -73.07735406 102.47696722 -60.84185791 96.32319641 C-59.32437686 95.56193516 -57.80679887 94.80086712 -56.28912354 94.03999329 C-53.54316818 92.66299848 -50.79773565 91.28497488 -48.05303955 89.9054718 C-45.62977404 88.68796567 -43.20497732 87.47350612 -40.77935791 86.26069641 C-40.77935791 82.96069641 -40.77935791 79.66069641 -40.77935791 76.26069641 C-48.06240891 72.60760818 -55.34652443 68.95665509 -62.63202572 65.30845642 C-66.01459446 63.61455786 -69.39678551 61.91991392 -72.77813721 60.22358704 C-76.03865106 58.58791488 -79.3001257 56.95417393 -82.56228828 55.3217926 C-83.80943093 54.6972943 -85.05622013 54.07208967 -86.30265617 53.44618225 C-88.04258174 52.57261323 -89.78386054 51.70174106 -91.52520752 50.83100891 C-92.51782089 50.33359192 -93.51043427 49.83617493 -94.53312683 49.32368469 C-96.51583141 48.18940434 -96.51583141 48.18940434 -97.77935791 48.26069641 Z " fill="#3DB7FD" transform="translate(182.77935791015625,158.7393035888672)"/>
<path d="M0 0 C0.70640625 0.53109375 1.4128125 1.0621875 2.140625 1.609375 C8.49702327 6.66446339 16.72906555 15.70866576 18 24 C18.59425781 23.61328125 19.18851563 23.2265625 19.80078125 22.828125 C35.40472882 13.02408951 52.0347646 9.81361788 70.05078125 13.8984375 C85.90723304 17.97458608 98.41982634 28.31581 107 42 C109.00677146 45.91075707 110.60550907 49.83410484 112 54 C112.24492187 54.69996094 112.48984375 55.39992188 112.7421875 56.12109375 C117.05857541 71.28758002 114.00398037 88.4661634 106.796875 102.11328125 C103.76878121 106.97797975 100.06740223 110.98841118 96 115 C95.36191406 115.64839844 94.72382813 116.29679688 94.06640625 116.96484375 C82.41624333 128.03370956 67.60894317 131.48681157 52.00976562 131.35375977 C36.58958182 130.92079897 24.36660817 125.32047786 13 115 C11.17962044 113.06507971 9.59646825 111.12862434 8 109 C5.01422497 110.34294685 2.96310949 111.8503686 0.625 114.125 C-16.33778656 129.19953573 -37.0718643 132.15870263 -59 131 C-63.22314674 130.43184361 -67.00554021 129.46483135 -71 128 C-71.98871094 127.64808594 -72.97742188 127.29617187 -73.99609375 126.93359375 C-93.40756521 119.44101304 -106.80328457 106.10600111 -115.75 87.5 C-119.29822942 79.30639128 -121.51176302 70.92142119 -122 62 C-122.05285156 61.10925781 -122.10570313 60.21851562 -122.16015625 59.30078125 C-122.75784822 39.83681242 -115.87938156 21.51256157 -103 7 C-75.68461042 -21.96191229 -31.12307077 -25.17598718 0 0 Z M-80.73046875 29.16796875 C-89.71418233 40.37828259 -91.11207307 52.13636285 -90 66 C-87.74595404 77.3924371 -80.32634244 87.28718155 -71 94 C-60.84003155 100.31779715 -49.67682261 101.33059522 -37.96875 99.53515625 C-31.36147314 97.96685599 -26.37561785 95.0754176 -21 91 C-20.13375 90.4225 -19.2675 89.845 -18.375 89.25 C-9.25975379 80.61450359 -4.89417825 69.94840338 -4.5 57.5 C-4.89701768 44.96192543 -9.32143642 35.10899076 -17.87890625 26 C-26.61969798 17.80661139 -37.6307066 13.41635444 -49.62109375 13.75 C-61.94212508 15.04482103 -72.24277416 20.25254782 -80.73046875 29.16796875 Z M39 48 C37.948125 48.7425 36.89625 49.485 35.8125 50.25 C29.40222206 56.51782732 26.5151428 63.00384771 26 72 C26.42528599 81.16422721 30.74710141 88.21727271 37.375 94.375 C43.46353023 99.16074428 49.49305937 100.58646351 57.19140625 100.3515625 C64.58574045 99.4259852 70.82657379 96.29373845 76 91 C81.55110093 83.53152715 84.08866674 76.34324109 83 67 C80.92181001 58.76190557 76.63832097 52.46609076 69.8515625 47.39453125 C60.58648457 41.90012457 47.85427922 41.53934172 39 48 Z " fill="#3CB7FD" transform="translate(227,22)"/>
<path d="M0 0 C6.93 0 13.86 0 21 0 C21.85464844 2.22621094 22.70929688 4.45242188 23.58984375 6.74609375 C24.41659649 8.89420879 25.24426366 11.04196936 26.07202148 13.18969727 C26.64817578 14.68607317 27.2233741 16.18281751 27.79760742 17.67993164 C28.62169195 19.82795524 29.44917074 21.97464372 30.27734375 24.12109375 C30.53466782 24.79401962 30.79199188 25.4669455 31.05711365 26.16026306 C32.12532781 29.32029351 32.12532781 29.32029351 34 32 C37.96 21.44 41.92 10.88 46 0 C52.93 0 59.86 0 67 0 C67 18.81 67 37.62 67 57 C52 58 52 58 50 57 C49.67 49.41 49.34 41.82 49 34 C46.73967977 40.82049783 46.73967977 40.82049783 44.48266602 47.64208984 C44.20092529 48.48980957 43.91918457 49.3375293 43.62890625 50.2109375 C43.34088135 51.08024902 43.05285645 51.94956055 42.75610352 52.84521484 C42 55 42 55 41 57 C36.05 57 31.1 57 26 57 C23.01436344 49.74916836 20.42779251 42.45679128 18 35 C17.67 42.26 17.34 49.52 17 57 C11.39 57 5.78 57 0 57 C0 38.19 0 19.38 0 0 Z " fill="#44BAFC" transform="translate(278,361)"/>
<path d="M0 0 C4.38932219 3.40566859 7.30659372 7.44230561 9.03515625 12.74609375 C9.03515625 14.06609375 9.03515625 15.38609375 9.03515625 16.74609375 C6.11793077 16.82712779 3.20296109 16.88660456 0.28515625 16.93359375 C-0.53984375 16.95873047 -1.36484375 16.98386719 -2.21484375 17.00976562 C-6.80040818 17.06523616 -9.51203194 17.08071641 -12.96484375 13.74609375 C-16.89468239 12.52347729 -18.74779574 12.67736188 -22.71484375 13.93359375 C-26.12701296 15.83653427 -26.68661388 16.26001229 -27.96484375 19.74609375 C-28.52883403 24.66086617 -28.61375413 29.23196952 -26.65234375 33.80859375 C-24.5337715 36.24102856 -22.88574344 37.64155088 -19.625 38.01171875 C-18.76777344 38.0065625 -17.91054687 38.00140625 -17.02734375 37.99609375 C-16.17269531 38.00125 -15.31804687 38.00640625 -14.4375 38.01171875 C-11.80810388 37.72925598 -10.18821806 37.1587074 -7.96484375 35.74609375 C-7.46984375 34.75609375 -7.46984375 34.75609375 -6.96484375 33.74609375 C-8.35509766 33.76349609 -8.35509766 33.76349609 -9.7734375 33.78125 C-10.97097656 33.79027344 -12.16851562 33.79929687 -13.40234375 33.80859375 C-14.59730469 33.82019531 -15.79226562 33.83179688 -17.0234375 33.84375 C-19.96484375 33.74609375 -19.96484375 33.74609375 -20.96484375 32.74609375 C-20.96484375 28.78609375 -20.96484375 24.82609375 -20.96484375 20.74609375 C-10.73484375 20.74609375 -0.50484375 20.74609375 10.03515625 20.74609375 C10.89386832 38.92216586 10.89386832 38.92216586 5.94140625 44.94921875 C-2.06935203 52.50034336 -10.00902646 55.2533902 -20.98046875 54.98046875 C-29.36285934 54.32216582 -34.741002 51.16144092 -40.7890625 45.3203125 C-46.77283584 38.24076738 -47.65575461 30.14245108 -47.33984375 21.109375 C-46.43115344 12.95955882 -43.35480008 6.97351704 -37.28515625 1.44140625 C-26.73238273 -6.26886935 -11.09295358 -7.07920099 0 0 Z " fill="#3FB7FB" transform="translate(184.96484375,364.25390625)"/>
<path d="M0 0 C5.61 0 11.22 0 17 0 C17 14.52 17 29.04 17 44 C22.61 44 28.22 44 34 44 C37.07318149 47.07318149 35 52.65386506 35 57 C23.45 57 11.9 57 0 57 C0 38.19 0 19.38 0 0 Z " fill="#4EBCFB" transform="translate(205,361)"/>
<path d="M0 0 C5.61 0 11.22 0 17 0 C17 18.81 17 37.62 17 57 C11.39 57 5.78 57 0 57 C-0.62268242 52.64122305 -1.12539188 49.00916953 -1.12939453 44.72314453 C-1.13254669 43.74588409 -1.13569885 42.76862366 -1.13894653 41.76174927 C-1.1369223 40.72920013 -1.13489807 39.696651 -1.1328125 38.6328125 C-1.13424759 37.01981766 -1.13424759 37.01981766 -1.13571167 35.37423706 C-1.13638958 33.11342307 -1.13456256 30.85260709 -1.13037109 28.59179688 C-1.12498581 25.11584168 -1.13034536 21.64001386 -1.13671875 18.1640625 C-1.13605852 15.96614555 -1.13477849 13.76822867 -1.1328125 11.5703125 C-1.13483673 10.52561798 -1.13686096 9.48092346 -1.13894653 8.40457153 C-1.13579437 7.44622406 -1.13264221 6.48787659 -1.12939453 5.50048828 C-1.12820114 4.22976974 -1.12820114 4.22976974 -1.12698364 2.93338013 C-1 1 -1 1 0 0 Z " fill="#50BDFB" transform="translate(249,361)"/>
<path d="M0 0 C1.23519882 -0.00321259 2.47039764 -0.00642517 3.74302673 -0.00973511 C7.10710121 -0.00761943 10.46360872 0.0430596 13.82642126 0.11638355 C17.35219306 0.18180371 20.87804179 0.18498046 24.40432739 0.19525146 C30.31767641 0.22091705 36.22944526 0.28597277 42.14208984 0.37988281 C50.48232545 0.51233644 58.82203896 0.57667237 67.16312766 0.6258626 C78.94643288 0.69851797 90.72942343 0.8051678 102.51171875 0.9765625 C104.25564659 0.99709183 104.25564659 0.99709183 106.0348053 1.01803589 C107.09452042 1.03530731 108.15423553 1.05257874 109.24606323 1.07037354 C110.62919362 1.09042135 110.62919362 1.09042135 112.04026604 1.11087418 C114.36767578 1.26464844 114.36767578 1.26464844 117.36767578 2.26464844 C117.36767578 2.92464844 117.36767578 3.58464844 117.36767578 4.26464844 C119.01767578 4.59464844 120.66767578 4.92464844 122.36767578 5.26464844 C126.28201257 14.15062054 125.80402363 23.17211958 125.76611328 32.68652344 C125.76813693 34.47772337 125.77105079 36.2689225 125.77481079 38.06011963 C125.77921588 41.79878651 125.77285883 45.53723728 125.75878906 49.27587891 C125.74164847 54.06310473 125.75158053 58.84982771 125.76950645 63.63703537 C125.78035118 67.32938422 125.77689565 71.02161392 125.76912308 74.71396637 C125.76712555 76.47938344 125.76956462 78.24481142 125.77656174 80.01021576 C125.78419315 82.47520116 125.77255111 84.93937206 125.75585938 87.40429688 C125.76193207 88.12959091 125.76800476 88.85488495 125.77426147 89.60215759 C125.71932003 93.98874132 125.05993084 96.77379177 122.36767578 100.26464844 C120.18017578 101.57714844 120.18017578 101.57714844 118.36767578 102.26464844 C119.01732803 101.27965363 119.66698029 100.29465881 120.33631897 99.27981567 C122.62097359 95.25871997 122.92948554 91.58324609 122.86938477 87.02197266 C122.87478775 86.22918915 122.88019073 85.43640564 122.88575745 84.61959839 C122.89818712 82.0191222 122.88179592 79.41976548 122.86376953 76.81933594 C122.86392462 75.00285789 122.86541529 73.18637951 122.86817932 71.36990356 C122.86956062 67.57213627 122.85704798 63.77474789 122.83422852 59.97705078 C122.80580409 55.11351944 122.80859578 50.25061534 122.82131863 45.38703728 C122.82827763 41.63976701 122.82048466 37.89264136 122.8080616 34.14538956 C122.80355211 32.35206787 122.8032059 30.55873063 122.807127 28.76540756 C122.81004245 26.25946012 122.79351828 23.75437368 122.77172852 21.24853516 C122.77623016 20.51074829 122.78073181 19.77296143 122.78536987 19.01281738 C122.72160238 14.59162627 122.25054507 11.67548292 119.36767578 8.26464844 C113.90772445 4.26445679 107.88297131 4.83473035 101.39892578 4.8605957 C100.19824463 4.85373245 98.99756348 4.8468692 97.76049805 4.83979797 C94.47945092 4.82466515 91.19876124 4.82302685 87.91769409 4.82874036 C85.17413673 4.83183765 82.43063046 4.8257339 79.68708038 4.81970161 C73.21338118 4.80567197 66.73981399 4.80720509 60.26611328 4.81860352 C53.59606268 4.8300884 46.92641398 4.81599969 40.25641632 4.78920704 C34.52033921 4.76703185 28.7843881 4.76041657 23.04827118 4.76628345 C19.62640247 4.76964932 16.20479148 4.76726279 12.78295898 4.75003242 C8.967143 4.73516617 5.15221389 4.74576866 1.33642578 4.76293945 C0.20793213 4.75327148 -0.92056152 4.74360352 -2.08325195 4.73364258 C-8.0591843 4.78999153 -12.05904599 4.98815614 -16.63232422 9.26464844 C-20.00940904 13.35287113 -20.04635256 17.26035126 -19.97290039 22.35961914 C-19.97333847 23.16014206 -19.97377655 23.96066498 -19.97422791 24.78544617 C-19.97214468 27.4206923 -19.948836 30.05529526 -19.92529297 32.69042969 C-19.91969535 34.52174024 -19.91542603 36.35305529 -19.91242981 38.18437195 C-19.90099411 42.9963936 -19.87153788 47.80814215 -19.83831787 52.62005615 C-19.80758951 57.53345038 -19.79391856 62.44688888 -19.77880859 67.36035156 C-19.74666698 76.99523696 -19.69548602 86.62991996 -19.63232422 96.26464844 C-20.29232422 95.93464844 -20.95232422 95.60464844 -21.63232422 95.26464844 C-21.84157676 84.63315353 -22.00113157 74.00215459 -22.09863377 63.36901379 C-22.14544988 58.43056793 -22.20886478 53.49353879 -22.3112793 48.5559082 C-22.4096364 43.7836005 -22.46299881 39.01264831 -22.48621941 34.23940468 C-22.50274927 32.42569975 -22.53502955 30.61206255 -22.58389473 28.79894066 C-22.65001901 26.24190005 -22.65819686 23.69033677 -22.65405273 21.13256836 C-22.68641022 20.3960051 -22.7187677 19.65944183 -22.75210571 18.90055847 C-22.64105593 12.4962809 -19.53985634 8.18942407 -15.37697887 3.48669147 C-10.55698705 -0.41552232 -5.99753386 -0.19797792 0 0 Z " fill="#92D5F8" transform="translate(193.63232421875,185.7353515625)"/>
<path d="M0 0 C0.66 0.33 1.32 0.66 2 1 C1.3503125 1.58007812 1.3503125 1.58007812 0.6875 2.171875 C-0.1478125 2.95304687 -0.1478125 2.95304687 -1 3.75 C-1.556875 4.26046875 -2.11375 4.7709375 -2.6875 5.296875 C-4.40694193 7.1696916 -4.40694193 7.1696916 -4 11 C-5.4375 12.5625 -5.4375 12.5625 -7 14 C-9.58357177 21.7507153 -8.73238147 31.66714899 -5.94921875 39.265625 C-4.88881765 41.203148 -3.55516467 42.44919153 -2 44 C-2 44.66 -2 45.32 -2 46 C-1.46375 46.2475 -0.9275 46.495 -0.375 46.75 C2 48 2 48 4.57421875 50.05078125 C8.98006488 52.55764239 12.22069751 52.562375 17.1875 52.4375 C17.99380859 52.44458984 18.80011719 52.45167969 19.63085938 52.45898438 C23.99264418 52.62669751 23.99264418 52.62669751 27.5715332 50.52758789 C28.04292725 50.02348389 28.51432129 49.51937988 29 49 C29.94875 48.71125 30.8975 48.4225 31.875 48.125 C36.71346671 46.38315198 39.20090319 43.19864521 42 39 C42.3626117 37.07255631 42.3626117 37.07255631 42.4140625 34.98828125 C42.44967285 34.30548096 42.4852832 33.62268066 42.52197266 32.91918945 C42.55597168 32.05898193 42.5899707 31.19877441 42.625 30.3125 C42.74875 27.569375 42.8725 24.82625 43 22 C33.76 22 24.52 22 15 22 C15 25.3 15 28.6 15 32 C20.28 32 25.56 32 31 32 C31.495 33.98 31.495 33.98 32 36 C29.1875 37.5625 29.1875 37.5625 26 39 C25.01 38.67 24.02 38.34 23 38 C23.639375 37.71125 24.27875 37.4225 24.9375 37.125 C27.15206079 36.17176549 27.15206079 36.17176549 28 34 C26.60974609 34.01740234 26.60974609 34.01740234 25.19140625 34.03515625 C23.99386719 34.04417969 22.79632813 34.05320312 21.5625 34.0625 C20.36753906 34.07410156 19.17257813 34.08570313 17.94140625 34.09765625 C15 34 15 34 14 33 C14 29.04 14 25.08 14 21 C24.23 21 34.46 21 45 21 C45.85871207 39.17607211 45.85871207 39.17607211 40.90625 45.203125 C32.89549172 52.75424961 24.95581729 55.50729645 13.984375 55.234375 C5.60198441 54.57607207 0.22384175 51.41534717 -5.82421875 45.57421875 C-11.80799209 38.49467363 -12.69091086 30.39635733 -12.375 21.36328125 C-11.31130598 11.8232755 -7.12848691 6.19417066 0 0 Z " fill="#ACE1FB" transform="translate(150,364)"/>
<path d="M0 0 C4.875 0.875 4.875 0.875 6 2 C9.03025802 2.53821001 12.07076988 2.96556821 15.1171875 3.40234375 C18 4 18 4 21 6 C23.57768272 6.31213891 23.57768272 6.31213891 26.52384949 6.2784729 C27.67229843 6.28963638 28.82074738 6.30079987 30.0039978 6.31230164 C31.26491241 6.31446182 32.52582703 6.31662201 33.82495117 6.31884766 C35.16528428 6.32814516 36.50561159 6.33831357 37.84593201 6.34928894 C41.48612181 6.37662323 45.12627285 6.39174844 48.76653838 6.40471697 C52.57025975 6.42033256 56.37390176 6.44712776 60.17756653 6.4727478 C67.38104456 6.5195635 74.58453748 6.55629406 81.78809005 6.58942068 C89.98877807 6.62762238 98.18938645 6.67703763 106.39000738 6.72740483 C123.25994734 6.83076618 140.12993336 6.92001287 157 7 C153.71670341 8.95293098 151.25733438 9.25273505 147.46115112 9.26069641 C146.33419327 9.26778122 145.20723541 9.27486603 144.04612732 9.28216553 C142.81386917 9.27968811 141.58161102 9.27721069 140.31201172 9.2746582 C139.01075851 9.27976913 137.70950531 9.28488007 136.36882019 9.29014587 C132.80028904 9.30353719 129.23186381 9.30411394 125.66331244 9.30158257 C122.67916646 9.300512 119.69504183 9.30539895 116.71090043 9.310188 C109.66369601 9.32128568 102.61654487 9.32172047 95.56933594 9.31567383 C88.31667615 9.30964605 81.06421094 9.32191388 73.81158435 9.3432439 C67.57359457 9.36091052 61.33566641 9.36685293 55.09765255 9.36360615 C51.37721097 9.36179968 47.65690789 9.36436461 43.93648911 9.37832069 C39.77898485 9.39333175 35.62187077 9.38388487 31.46435547 9.37231445 C30.24424271 9.37995819 29.02412994 9.38760193 27.76704407 9.39547729 C19.0619909 9.34209745 10.76989709 8.33536307 3.375 3.375 C2.72273437 2.94960938 2.07046875 2.52421875 1.3984375 2.0859375 C0.93695313 1.72757812 0.47546875 1.36921875 0 1 C0 0.67 0 0.34 0 0 Z " fill="#75C5F1" transform="translate(160,312)"/>
<path d="M0 0 C1.11375 1.175625 1.11375 1.175625 2.25 2.375 C6.1906744 6.13655284 8.7254608 7.25050918 14.15489197 7.24723816 C15.71733391 7.25352989 15.71733391 7.25352989 17.31134033 7.25994873 C18.44859558 7.25432922 19.58585083 7.24870972 20.75756836 7.24291992 C21.95956375 7.24481827 23.16155914 7.24671661 24.39997864 7.24867249 C27.69345447 7.25174229 30.98667928 7.24587141 34.28012538 7.23571944 C37.72911213 7.22692719 41.17809478 7.22869664 44.62709045 7.2290802 C50.4199551 7.2281439 56.21276734 7.2194654 62.00561523 7.20581055 C68.69822731 7.19009282 75.39078196 7.18481223 82.08341116 7.1855461 C89.21346641 7.1862223 96.34349959 7.17927598 103.47354817 7.1700995 C105.52547175 7.16797069 107.57739175 7.16725865 109.62931633 7.16686058 C113.45724379 7.16566684 117.28512382 7.15594405 121.11303711 7.14526367 C122.81588364 7.14594345 122.81588364 7.14594345 124.5531311 7.14663696 C125.59757889 7.14237198 126.64202667 7.13810699 127.71812439 7.13371277 C128.62273879 7.13203692 129.52735319 7.13036108 130.45938015 7.12863445 C133.05986128 6.99696916 135.46359486 6.57468805 138 6 C138 6.66 138 7.32 138 8 C131.60326032 10.28896633 125.57167668 10.30599467 118.82250977 10.31884766 C117.61204483 10.32889328 116.4015799 10.3389389 115.1544342 10.34928894 C111.85326389 10.37479337 108.55226367 10.39170146 105.25103498 10.40471697 C101.79433693 10.42040168 98.33772474 10.44717473 94.88108826 10.4727478 C88.34356625 10.51944142 81.80602792 10.55623092 75.26842493 10.58942068 C67.82216003 10.62770883 60.37598157 10.67710134 52.92978966 10.72740483 C37.61992235 10.83058452 22.31000647 10.91989007 7 11 C6.67 10.01 6.34 9.02 6 8 C4.68 8 3.36 8 2 8 C2 6.68 2 5.36 2 4 C1.34 4 0.68 4 0 4 C0 2.68 0 1.36 0 0 Z " fill="#B7E8FB" transform="translate(174,282)"/>
<path d="M0 0 C8.25 0 16.5 0 25 0 C25.9702889 2.91086669 26.16467847 4.90223685 26.1875 7.9375 C26.20167969 8.79214844 26.21585938 9.64679688 26.23046875 10.52734375 C25.98366843 13.17521837 25.42843423 14.76963777 24 17 C22 17.875 22 17.875 20 18 C19.34 17.34 18.68 16.68 18 16 C18.33 15.01 18.66 14.02 19 13 C18.01 12.67 17.02 12.34 16 12 C15.34 11.01 14.68 10.02 14 9 C10.88389446 8.41407366 10.88389446 8.41407366 7.375 8.3125 C6.18648437 8.24675781 4.99796875 8.18101562 3.7734375 8.11328125 C2.85820312 8.07589844 1.94296875 8.03851563 1 8 C0.67 5.36 0.34 2.72 0 0 Z " fill="#38B6FD" transform="translate(166,387)"/>
<path d="M0 0 C2.516206 1.28729817 5.02279243 2.5896685 7.52001953 3.91333008 C4.52001953 4.91333008 4.52001953 4.91333008 1.21923828 3.29614258 C-0.11849411 2.54441471 -1.45570308 1.7917549 -2.79248047 1.03833008 C-10.97150883 -3.2888438 -18.80079211 -5.63719579 -28.10498047 -3.47729492 C-34.10673788 -1.16580727 -39.31384136 3.17720237 -42.55266285 8.76347828 C-43.54855982 11.0723214 -43.72912384 12.59274381 -43.72721863 15.09220886 C-43.73141312 15.91770233 -43.7356076 16.7431958 -43.7399292 17.59370422 C-43.73430969 18.49090683 -43.72869019 19.38810944 -43.72290039 20.3125 C-43.72479874 21.26423096 -43.72669708 22.21596191 -43.72865295 23.1965332 C-43.73235997 26.34570534 -43.72165331 29.49464713 -43.71044922 32.64379883 C-43.70925673 34.83612542 -43.7088044 37.02845252 -43.70906067 39.22077942 C-43.70749566 43.81990755 -43.69920772 48.41895786 -43.68579102 53.01806641 C-43.66885131 58.89786737 -43.66497533 64.7775824 -43.6657362 70.6574049 C-43.66546341 75.18800163 -43.65996401 79.71857978 -43.65273476 84.2491703 C-43.64956333 86.41598686 -43.64758427 88.58280551 -43.64684105 90.74962425 C-43.64465839 93.78884794 -43.63587151 96.82798305 -43.62524414 99.8671875 C-43.62569733 100.75426895 -43.62615051 101.6413504 -43.62661743 102.55531311 C-43.5985542 108.07976165 -43.17497435 113.43159902 -42.47998047 118.91333008 C-45.55526378 115.83804677 -45.60299296 112.79015789 -45.62715149 108.5758667 C-45.63430679 107.71527145 -45.6414621 106.85467621 -45.64883423 105.96800232 C-45.65152313 105.03182571 -45.65421204 104.09564911 -45.65698242 103.13110352 C-45.66355362 102.13875198 -45.67012482 101.14640045 -45.67689514 100.12397766 C-45.69660419 96.84021934 -45.70828524 93.5565067 -45.71826172 90.27270508 C-45.72233725 89.15000465 -45.72641277 88.02730423 -45.7306118 86.87058258 C-45.75146197 80.92861618 -45.76576847 74.9866728 -45.77514648 69.04467773 C-45.78621079 62.91353128 -45.82061436 56.78274776 -45.86031818 50.65172958 C-45.88648475 45.93159315 -45.89483837 41.21154322 -45.89842796 36.49134064 C-45.90329349 34.23156533 -45.91490644 31.97179387 -45.93346596 29.71208954 C-45.95785829 26.54547992 -45.95689189 23.37980991 -45.94995117 20.21313477 C-45.96276123 19.28505508 -45.97557129 18.3569754 -45.98876953 17.40077209 C-45.93234307 10.315794 -44.22080683 5.04103252 -39.51513672 -0.32885742 C-38.86416016 -0.86768555 -38.21318359 -1.40651367 -37.54248047 -1.96166992 C-36.89408203 -2.5159668 -36.24568359 -3.07026367 -35.57763672 -3.64135742 C-23.40376959 -12.02931057 -11.67844242 -5.85002291 0 0 Z " fill="#ACE4FB" transform="translate(99.47998046875,178.086669921875)"/>
<path d="M0 0 C0.33 0.66 0.66 1.32 1 2 C0.27530054 3.69685727 -0.53123766 5.35909202 -1.375 7 C-3.6685455 11.80250687 -4.62558117 15.80780227 -4.859375 21.1015625 C-5 23 -5 23 -6 24 C-6.90406094 31.42222868 -7.12245791 38.96353355 -7.25 46.4375 C-7.27578125 47.71496094 -7.3015625 48.99242187 -7.328125 50.30859375 C-6.94747722 54.59088126 -5.8668499 57.15456853 -4 61 C-3.566875 62.051875 -3.13375 63.10375 -2.6875 64.1875 C-0.79714773 68.68347295 1.57787008 72.94085903 3.890625 77.23046875 C5.052011 80.12984437 5.1632929 81.16616438 4 84 C-4.60864823 72.01889164 -10.18780552 58.84100828 -11 44 C-11.07927734 42.66388672 -11.07927734 42.66388672 -11.16015625 41.30078125 C-11.61210511 26.58296823 -7.4406087 13.98030369 -1 1 C-0.67 0.67 -0.34 0.34 0 0 Z " fill="#96D9F9" transform="translate(116,40)"/>
<path d="M0 0 C3 1 3 1 4.66323853 3.56016541 C6.19015536 7.48931916 6.42278981 10.88882601 6.38818359 15.03735352 C6.39344055 15.82023743 6.39869751 16.60312134 6.40411377 17.409729 C6.41725707 19.9829944 6.40859691 22.55563518 6.3984375 25.12890625 C6.40045967 26.9243939 6.4033723 28.71988075 6.40713501 30.5153656 C6.4115505 34.27196092 6.40515156 38.02834177 6.39111328 41.78491211 C6.37400947 46.59576489 6.38387499 51.40611597 6.40183067 56.21695042 C6.41267895 59.92217275 6.40921759 63.62727642 6.4014473 67.33250237 C6.39944882 69.1062927 6.40189219 70.88009387 6.40888596 72.65387154 C6.41651905 75.1335512 6.40487125 77.61242151 6.38818359 80.09204102 C6.39425629 80.82204819 6.40032898 81.55205536 6.40658569 82.30418396 C6.3518467 86.70265784 5.70277565 89.50048944 3 93 C0.8125 94.3125 0.8125 94.3125 -1 95 C-0.35034775 94.01467789 0.2993045 93.02935577 0.96864319 92.01417542 C3.25057753 87.99789505 3.56187113 84.32934787 3.50170898 79.77319336 C3.50711197 78.98201614 3.51251495 78.19083893 3.51808167 77.37568665 C3.53051258 74.78001632 3.51411779 72.18546739 3.49609375 69.58984375 C3.49624885 67.77576133 3.49773973 65.96167858 3.50050354 64.14759827 C3.50188495 60.354027 3.48937156 56.560835 3.46655273 52.76733398 C3.43814857 47.9128687 3.44091439 43.05903219 3.45364285 38.20452023 C3.46060791 34.46149861 3.45280163 30.71862152 3.44038582 26.97561836 C3.43588079 25.18591428 3.4355262 23.39619463 3.43945122 21.60648918 C3.44237211 19.1031415 3.42581587 16.60065124 3.40405273 14.09741211 C3.40855438 13.36322052 3.41305603 12.62902893 3.41769409 11.87258911 C3.35034329 7.19360884 2.37640498 4.01868624 0 0 Z " fill="#B8EAFE" transform="translate(313,193)"/>
<path d="M0 0 C3.95830195 1.70616464 5.8363474 4.00748906 8.4375 7.34375 C9.9102208 9.12045389 9.9102208 9.12045389 12.0625 9.90625 C14.78350938 11.44230368 15.07061129 13.07114658 16 16 C16.28101563 16.79277344 16.56203125 17.58554687 16.8515625 18.40234375 C20.1058712 29.06924448 20.88417964 41.64875508 16 52 C14.515 52.495 14.515 52.495 13 53 C12.731875 53.9075 12.46375 54.815 12.1875 55.75 C10.62206425 60.03435049 8.62402971 61.32136934 5 64 C6.36781311 61.19503763 7.86279503 58.50568701 9.4375 55.8125 C15.1218792 45.4359853 16.70557411 35.52787056 14.34375 23.71875 C12.19352419 16.52661538 8.61895797 10.8621114 4 5 C3.195625 3.96875 2.39125 2.9375 1.5625 1.875 C1.046875 1.25625 0.53125 0.6375 0 0 Z " fill="#92D7F8" transform="translate(206,45)"/>
<path d="M0 0 C6.93 0 13.86 0 21 0 C21.33 1.65 21.66 3.3 22 5 C21.34 4.67 20.68 4.34 20 4 C20 3.01 20 2.02 20 1 C13.73 1 7.46 1 1 1 C1 19.15 1 37.3 1 56 C5.95 56 10.9 56 16 56 C16 47.09 16 38.18 16 29 C16.66 29 17.32 29 18 29 C19.4606285 31.64738916 20 32.89448334 20 36 C20.66 36 21.32 36 22 36 C22.5321441 38.08047297 23.05031786 40.16452293 23.5625 42.25 C23.85253906 43.41015625 24.14257812 44.5703125 24.44140625 45.765625 C25 49 25 49 24 53 C22.02 47.06 20.04 41.12 18 35 C17.67 42.26 17.34 49.52 17 57 C11.39 57 5.78 57 0 57 C0 38.19 0 19.38 0 0 Z " fill="#AAE2FD" transform="translate(278,361)"/>
<path d="M0 0 C0.66 0.33 1.32 0.66 2 1 C4.34282292 8.04851736 5.13623348 19.10080701 2.14453125 25.96191406 C-0.05335728 29.48289975 -2.77409972 32.40879851 -6 35 C-6.66 35 -7.32 35 -8 35 C-8.28875 35.639375 -8.5775 36.27875 -8.875 36.9375 C-10 39 -10 39 -12 40 C-22.70161451 40.9885729 -35.21691426 42.11103222 -44 35 C-45.86196542 33.4089441 -47.39975593 31.86695141 -49 30 C-48.67 29.34 -48.34 28.68 -48 28 C-47.5153125 28.47050781 -47.030625 28.94101563 -46.53125 29.42578125 C-39.42716362 36.02438456 -33.59304422 38.64073462 -23.8125 38.35546875 C-17.1908401 37.51856451 -10.68373286 34.8175538 -6 30 C0.50263752 21.13968105 1.99027711 13.17950908 0.5 2.375 C0.2525 1.199375 0.2525 1.199375 0 0 Z " fill="#A0DEFA" transform="translate(308,83)"/>
<path d="M0 0 C1.65 0 3.3 0 5 0 C5.33 0.99 5.66 1.98 6 3 C5.34 3 4.68 3 4 3 C4 24.12 4 45.24 4 67 C4.66 67.33 5.32 67.66 6 68 C3.525 68.495 3.525 68.495 1 69 C0.67 46.23 0.34 23.46 0 0 Z " fill="#82CDF6" transform="translate(82,205)"/>
<path d="M0 0 C0.05607422 1.08667969 0.05607422 1.08667969 0.11328125 2.1953125 C0.49902892 7.86807231 1.01394781 12.05756879 4 17 C4.43570313 17.84433594 4.87140625 18.68867188 5.3203125 19.55859375 C8.33982884 25.38420512 11.52284641 30.20304972 16 35 C7.76214715 31.39481276 3.26527208 22.98625627 0 15 C-0.58086141 13.0684901 -1.1282642 11.12658029 -1.640625 9.17578125 C-1.89875977 8.20165283 -2.15689453 7.22752441 -2.42285156 6.22387695 C-2.70854004 5.12305786 -2.70854004 5.12305786 -3 4 C-3.74502274 4.3791732 -3.74502274 4.3791732 -4.50509644 4.76600647 C-9.65857706 7.38687043 -14.81757766 9.9966094 -19.97998047 12.59985352 C-21.90786364 13.57387511 -23.83430341 14.55075897 -25.75927734 15.53051758 C-28.52069886 16.935389 -31.28708665 18.3300062 -34.0546875 19.72265625 C-34.9193161 20.16529312 -35.7839447 20.60792999 -36.67477417 21.0639801 C-37.47545319 21.46447067 -38.2761322 21.86496124 -39.10107422 22.27758789 C-39.8072287 22.63510635 -40.51338318 22.99262482 -41.24093628 23.36097717 C-41.82142731 23.57185471 -42.40191833 23.78273224 -43 24 C-43.66 23.67 -44.32 23.34 -45 23 C-42.20968982 21.51822774 -39.41802271 20.03914678 -36.625 18.5625 C-35.77607178 18.11310059 -34.92714355 17.66370117 -34.05249023 17.20068359 C-29.68559532 14.90002437 -25.30588532 12.63991961 -20.87109375 10.47265625 C-20.06269043 10.0768335 -19.25428711 9.68101074 -18.42138672 9.27319336 C-16.8809047 8.52336031 -15.33707135 7.78036295 -13.78955078 7.04516602 C-10.61529471 5.49879889 -8.26453996 4.26499843 -5.74609375 1.7421875 C-4 0 -4 0 0 0 Z " fill="#B8E9FC" transform="translate(144,277)"/>
<path d="M0 0 C0.33 0 0.66 0 1 0 C1 18.15 1 36.3 1 55 C-3.95 55 -8.9 55 -14 55 C-14 46.42 -14 37.84 -14 29 C-13.67 29 -13.34 29 -13 29 C-13 37.25 -13 45.5 -13 54 C-7.555 53.505 -7.555 53.505 -2 53 C-1.97494385 51.64318115 -1.9498877 50.2863623 -1.92407227 48.88842773 C-1.82962589 43.83592919 -1.72949718 38.78355623 -1.62768555 33.73120117 C-1.58447714 31.54796291 -1.54279261 29.36469392 -1.50268555 27.18139648 C-1.44464025 24.03620154 -1.3810458 20.89115925 -1.31640625 17.74609375 C-1.29969376 16.7760289 -1.28298126 15.80596405 -1.26576233 14.8065033 C-1.15689437 9.78249853 -0.84144905 4.95586541 0 0 Z " fill="#53B7F3" transform="translate(343,362)"/>
<path d="M0 0 C0.66 0.33 1.32 0.66 2 1 C1.3503125 1.58007812 1.3503125 1.58007812 0.6875 2.171875 C-0.1478125 2.95304687 -0.1478125 2.95304687 -1 3.75 C-1.556875 4.26046875 -2.11375 4.7709375 -2.6875 5.296875 C-4.40694193 7.1696916 -4.40694193 7.1696916 -4 11 C-5.4375 12.5625 -5.4375 12.5625 -7 14 C-9.58357177 21.7507153 -8.73238147 31.66714899 -5.94921875 39.265625 C-4.88881765 41.203148 -3.55516467 42.44919153 -2 44 C-2 44.66 -2 45.32 -2 46 C-3.75 45.875 -3.75 45.875 -6 45 C-12.58101176 36.87051488 -12.87839984 28.10159816 -12 18 C-10.28486074 10.08647771 -6.00616555 5.21894968 0 0 Z " fill="#88D1F6" transform="translate(150,364)"/>
<path d="M0 0 C2.31 0.66 4.62 1.32 7 2 C7 2.66 7 3.32 7 4 C9.64 4.33 12.28 4.66 15 5 C15 5.66 15 6.32 15 7 C15.58007812 7.12117187 16.16015625 7.24234375 16.7578125 7.3671875 C17.53898437 7.53476563 18.32015625 7.70234375 19.125 7.875 C19.89070313 8.03742188 20.65640625 8.19984375 21.4453125 8.3671875 C24 9 24 9 26.8125 10.0625 C30.55879588 11.16435173 34.01346244 11.2222868 37.875 11.125 C38.56335938 11.11597656 39.25171875 11.10695312 39.9609375 11.09765625 C41.64077838 11.07432513 43.32043746 11.03846326 45 11 C45 10.34 45 9.68 45 9 C49.29 9 53.58 9 58 9 C51.70169733 13.19886845 44.07779227 13.3649242 36.6875 13.3125 C35.85935791 13.30758545 35.03121582 13.3026709 34.17797852 13.29760742 C22.78689987 13.08121577 10.27337252 10.49177311 1.875 2.1875 C1.25625 1.465625 0.6375 0.74375 0 0 Z " fill="#8BD2F7" transform="translate(245,140)"/>
<path d="M0 0 C4.38932219 3.40566859 7.30659372 7.44230561 9.03515625 12.74609375 C9.03515625 14.06609375 9.03515625 15.38609375 9.03515625 16.74609375 C3.09515625 16.74609375 -2.84484375 16.74609375 -8.96484375 16.74609375 C-8.96484375 16.41609375 -8.96484375 16.08609375 -8.96484375 15.74609375 C-3.35484375 15.74609375 2.25515625 15.74609375 8.03515625 15.74609375 C6.53175851 11.59542714 6.53175851 11.59542714 3.47265625 10.80859375 C2.66828125 10.45796875 1.86390625 10.10734375 1.03515625 9.74609375 C0.34765625 7.18359375 0.34765625 7.18359375 0.03515625 4.74609375 C-0.62484375 4.41609375 -1.28484375 4.08609375 -1.96484375 3.74609375 C-2.29484375 2.75609375 -2.62484375 1.76609375 -2.96484375 0.74609375 C-7.90689408 -1.5782143 -12.62795253 -1.52507039 -17.96484375 -1.44140625 C-19.13660156 -1.44043945 -19.13660156 -1.44043945 -20.33203125 -1.43945312 C-24.64685201 -1.40676509 -28.71738918 -1.10475853 -32.96484375 -0.25390625 C-25.21121789 -8.00753211 -8.46198641 -5.40019411 0 0 Z " fill="#BAE7FC" transform="translate(184.96484375,364.25390625)"/>
<path d="M0 0 C0.86625 0.70125 1.7325 1.4025 2.625 2.125 C-1.1987697 2.125 -3.70951554 0.55642183 -7 -1.1875 C-18.21193137 -6.95817705 -27.73608279 -9.05412131 -40.3125 -9.0625 C-41.27607422 -9.07474609 -42.23964844 -9.08699219 -43.23242188 -9.09960938 C-48.73316337 -9.11088909 -53.1546185 -8.56005985 -58.375 -6.875 C-61.09062756 -6.65705236 -63.64260245 -6.7791264 -66.375 -6.875 C-48.31656622 -18.91395585 -16.39010909 -11.58497671 0 0 Z " fill="#B0E5FD" transform="translate(220.375,16.875)"/>
<path d="M0 0 C6.27 0 12.54 0 19 0 C19.33 0.99 19.66 1.98 20 3 C20.70382812 3.66515625 20.70382812 3.66515625 21.421875 4.34375 C23.49922367 6.52393772 24.23293036 8.67649325 25.25 11.5 C25.78367187 12.93859375 25.78367187 12.93859375 26.328125 14.40625 C27 17 27 17 26 20 C25.3291288 18.3767313 24.66342971 16.75132422 24 15.125 C23.62875 14.22007812 23.2575 13.31515625 22.875 12.3828125 C22 10 22 10 22 8 C21.34 8 20.68 8 20 8 C19.01 6.02 18.02 4.04 17 2 C11.72 1.67 6.44 1.34 1 1 C1.33 18.82 1.66 36.64 2 55 C1.34 55 0.68 55 0 55 C0 36.85 0 18.7 0 0 Z " fill="#6FC2F1" transform="translate(279,362)"/>
<path d="M0 0 C0.33 0 0.66 0 1 0 C1 15.51 1 31.02 1 47 C4.96 47 8.92 47 13 47 C13 37.43 13 27.86 13 18 C13.99 18.33 14.98 18.66 16 19 C16 19.99 16 20.98 16 22 C15.34 22 14.68 22 14 22 C14 30.91 14 39.82 14 49 C9.71 49 5.42 49 1 49 C0 48 0 48 -0.12025452 46.05747986 C-0.11803391 45.20698563 -0.11581329 44.35649139 -0.11352539 43.48022461 C-0.11344986 42.51930405 -0.11337433 41.55838348 -0.11329651 40.56834412 C-0.10813522 39.523564 -0.10297394 38.47878387 -0.09765625 37.40234375 C-0.0962413 36.33834854 -0.09482635 35.27435333 -0.09336853 34.17811584 C-0.08775064 30.76454917 -0.07519511 27.351047 -0.0625 23.9375 C-0.05748731 21.62955824 -0.052924 19.32161545 -0.04882812 17.01367188 C-0.0377754 11.34242574 -0.02101987 5.67121747 0 0 Z " fill="#43B2F4" transform="translate(280,368)"/>
<path d="M0 0 C-3.36240283 1.12080094 -3.78467681 0.93568182 -6.875 -0.375 C-17.89613333 -4.75545045 -27.71308711 -3.1681601 -38.60546875 0.99609375 C-45.39231747 4.03702286 -50.05463881 8.51709956 -55 14 C-55.33 13.34 -55.66 12.68 -56 12 C-51.7332675 6.34946236 -47.2765377 2.99911442 -41.1953125 -0.6171875 C-40.47085938 -1.07351562 -39.74640625 -1.52984375 -39 -2 C-39 -2.33 -39 -2.66 -39 -3 C-25.94574082 -5.98383067 -11.65701193 -7.37484428 0 0 Z " fill="#A5DFFB" transform="translate(200,40)"/>
<path d="M0 0 C4.1228284 -0.30824885 5.62795231 0.1046738 8.83984375 2.78125 C9.49984375 3.60625 10.15984375 4.43125 10.83984375 5.28125 C10.16566406 5.12269531 9.49148438 4.96414062 8.796875 4.80078125 C0.82055393 3.39939327 -8.50131189 2.74453904 -15.59375 7.15625 C-16.11066406 7.5275 -16.62757813 7.89875 -17.16015625 8.28125 C-18.04703125 8.85875 -18.93390625 9.43625 -19.84765625 10.03125 C-22.97556679 13.07462241 -24.96881917 16.53675471 -27.16015625 20.28125 C-27.82015625 21.27125 -28.48015625 22.26125 -29.16015625 23.28125 C-28.85866642 17.25145348 -26.28308914 13.46872978 -22.16015625 9.28125 C-15.10291368 3.70744636 -8.76883401 1.14169267 0 0 Z " fill="#B1E5FB" transform="translate(283.16015625,62.71875)"/>
<path d="M0 0 C0.66 0.33 1.32 0.66 2 1 C1.2575 1.8971875 1.2575 1.8971875 0.5 2.8125 C-1.70793959 7.50437162 -1.57561314 11.89623018 -1 17 C0.60298651 20.74030185 1.59737698 21.73158465 5 24 C7.50896686 24.45601261 7.50896686 24.45601261 10.1875 24.625 C11.08855469 24.69976562 11.98960937 24.77453125 12.91796875 24.8515625 C13.60503906 24.90054687 14.29210937 24.94953125 15 25 C15 25.33 15 25.66 15 26 C2.37175176 26.40446347 2.37175176 26.40446347 -2 24 C-6.05500772 18.86365688 -5.6706107 12.25322708 -5 6 C-3.76337477 2.66749822 -3.08491574 2.05661049 0 0 Z " fill="#7ECBF6" transform="translate(158,378)"/>
<path d="M0 0 C0.4846875 0.37511719 0.969375 0.75023438 1.46875 1.13671875 C14.01584151 10.71594054 23.82226019 15.1026169 40 14 C43.70918247 13.49242766 47.35086905 12.83408707 51 12 C46.88851115 16.11148885 41.68741236 16.27309723 36.15820312 16.32226562 C35.34287109 16.31904297 34.52753906 16.31582031 33.6875 16.3125 C32.4819043 16.33666992 32.4819043 16.33666992 31.25195312 16.36132812 C25.32236411 16.36609851 20.4960219 15.16844862 15 13 C13.98808594 12.61457031 12.97617188 12.22914062 11.93359375 11.83203125 C10.69802734 11.32736328 10.69802734 11.32736328 9.4375 10.8125 C8.59058594 10.46832031 7.74367187 10.12414062 6.87109375 9.76953125 C6.25363281 9.51558594 5.63617188 9.26164062 5 9 C5 8.34 5 7.68 5 7 C4.34 7 3.68 7 3 7 C0 2.61538462 0 2.61538462 0 0 Z " fill="#BBECFE" transform="translate(146,107)"/>
<path d="M0 0 C0.33 0.66 0.66 1.32 1 2 C0.27530054 3.69685727 -0.53123766 5.35909202 -1.375 7 C-3.6685455 11.80250687 -4.62558117 15.80780227 -4.859375 21.1015625 C-5 23 -5 23 -6 24 C-6.22789426 25.77690109 -6.39489788 27.56169968 -6.53515625 29.34765625 C-6.62216797 30.42724609 -6.70917969 31.50683594 -6.79882812 32.61914062 C-6.88583984 33.75544922 -6.97285156 34.89175781 -7.0625 36.0625 C-7.15337891 37.20267578 -7.24425781 38.34285156 -7.33789062 39.51757812 C-7.56264546 42.34475741 -7.78315711 45.17220464 -8 48 C-8.33 48 -8.66 48 -9 48 C-9.05168185 42.13698082 -9.06524032 36.27665876 -9.01660156 30.41357422 C-9.003697 28.53747789 -9.00976005 26.6612471 -9.0234375 24.78515625 C-8.77202106 17.36837133 -5.40531453 5.40531453 0 0 Z " fill="#79CAF6" transform="translate(116,40)"/>
<path d="M0 0 C1 2 1 2 0.56274414 3.78759766 C0.17783813 4.84019775 0.17783813 4.84019775 -0.21484375 5.9140625 C-0.48876953 6.67460937 -0.76269531 7.43515625 -1.04492188 8.21875 C-1.33947266 9.0128125 -1.63402344 9.806875 -1.9375 10.625 C-2.22818359 11.42679687 -2.51886719 12.22859375 -2.81835938 13.0546875 C-3.53882525 15.03892138 -4.26855138 17.01978837 -5 19 C-9.95 19 -14.9 19 -20 19 C-20.33 17.68 -20.66 16.36 -21 15 C-20.67 15.66 -20.34 16.32 -20 17 C-16.04 16.67 -12.08 16.34 -8 16 C-6.35 11.71 -4.7 7.42 -3 3 C-2.34 3 -1.68 3 -1 3 C-0.67 2.01 -0.34 1.02 0 0 Z " fill="#75C6F3" transform="translate(324,399)"/>
<path d="M0 0 C0.825 0.144375 1.65 0.28875 2.5 0.4375 C5.1095206 0.85688724 7.68919029 1.2022189 10.3125 1.5 C14 2 14 2 15 3 C16.34747084 3.23075082 17.70377565 3.41153063 19.0625 3.5625 C20.361875 3.706875 21.66125 3.85125 23 4 C23.33 4.99 23.66 5.98 24 7 C30.6 7 37.2 7 44 7 C44 7.33 44 7.66 44 8 C27.92983055 8.41827056 14.89000243 7.4896692 0 1 C0 0.67 0 0.34 0 0 Z " fill="#96D8F8" transform="translate(146,145)"/>
<path d="M0 0 C9.96804391 6.08122391 17.04165527 16.71068449 20 28 C19.6171875 30.34375 19.6171875 30.34375 19 32 C18.71125 31.030625 18.4225 30.06125 18.125 29.0625 C17.35785318 25.89335797 17.35785318 25.89335797 15 25 C13.65160149 22.0652503 12.6998952 19.14952839 12 16 C11.34 16 10.68 16 10 16 C9.9175 15.21625 9.835 14.4325 9.75 13.625 C9.5025 12.75875 9.255 11.8925 9 11 C7.67592331 10.31513275 6.34090759 9.65129797 5 9 C2.78271521 6.02250328 1.17504225 3.52512676 0 0 Z " fill="#9BDAF9" transform="translate(319,48)"/>
<path d="M0 0 C0.70125 0.78375 1.4025 1.5675 2.125 2.375 C5.13652555 5.12465376 7.17195679 5.83494337 11 7 C11.4434375 7.50144531 11.886875 8.00289063 12.34375 8.51953125 C15.32237515 11.18202873 18.75996565 10.5729878 22.58203125 10.5078125 C27.66662914 9.75238653 31.78349325 7.62118725 36.28515625 5.21484375 C39 4 39 4 42 5 C22.32880999 14.92630537 22.32880999 14.92630537 11.98828125 11.859375 C7.10567993 9.74901687 2.97652023 6.87166377 0.5 2.125 C0.335 1.42375 0.17 0.7225 0 0 Z " fill="#B5E7FC" transform="translate(57,297)"/>
<path d="M0 0 C3.465 1.98 3.465 1.98 7 4 C7 4.66 7 5.32 7 6 C7.85271484 6.37318359 7.85271484 6.37318359 8.72265625 6.75390625 C11.3428991 8.18762404 13.252626 9.9040904 15.4375 11.9375 C17.82658642 14.1603891 19.96168237 15.97758983 22.78515625 17.62890625 C23.51605469 18.08136719 24.24695313 18.53382813 25 19 C25 19.66 25 20.32 25 21 C14.91250969 18.67211762 6.59126722 9.52697948 0 2 C0 1.34 0 0.68 0 0 Z " fill="#8FD4F6" transform="translate(121,124)"/>
<path d="M0 0 C1 3 1 3 -0.046875 5.3125 C-7.22008393 16.63169207 -16.36626569 26.77493704 -29 32 C-29.99 31.67 -30.98 31.34 -32 31 C-31.09378906 30.52691406 -30.18757813 30.05382812 -29.25390625 29.56640625 C-17.79007738 23.41358391 -9.78596376 16.24468996 -3 5 C-2.38125 3.989375 -1.7625 2.97875 -1.125 1.9375 C-0.75375 1.298125 -0.3825 0.65875 0 0 Z " fill="#BFEAFD" transform="translate(335,117)"/>
<path d="M0 0 C4.29 0 8.58 0 13 0 C6.51751359 4.32165761 -1.17125728 4.30232944 -8.75 4.1875 C-9.57371094 4.18685547 -10.39742188 4.18621094 -11.24609375 4.18554688 C-15.28800752 4.15625764 -19.05753817 4.00164172 -23 3 C-23 2.67 -23 2.34 -23 2 C-15.41 2 -7.82 2 0 2 C0 1.34 0 0.68 0 0 Z " fill="#9FDAFC" transform="translate(290,149)"/>
<path d="M0 0 C4.35698355 1.93643713 8.05437103 4.19880197 10.3125 8.5 C11 11 11 11 11 15 C5.06 15 -0.88 15 -7 15 C-7 14.67 -7 14.34 -7 14 C-1.39 14 4.22 14 10 14 C8.49660226 9.84933339 8.49660226 9.84933339 5.4375 9.0625 C4.633125 8.711875 3.82875 8.36125 3 8 C2.3125 5.4375 2.3125 5.4375 2 3 C1.34 2.67 0.68 2.34 0 2 C0 1.34 0 0.68 0 0 Z " fill="#8FD4F8" transform="translate(183,366)"/>
<path d="M0 0 C5.28 0 10.56 0 16 0 C16.33 1.32 16.66 2.64 17 4 C14.1875 5.5625 14.1875 5.5625 11 7 C10.01 6.67 9.02 6.34 8 6 C8.639375 5.71125 9.27875 5.4225 9.9375 5.125 C12.15206079 4.17176549 12.15206079 4.17176549 13 2 C8.71 2 4.42 2 0 2 C0 1.34 0 0.68 0 0 Z " fill="#A6E2F8" transform="translate(165,396)"/>
<path d="M0 0 C0.33 0 0.66 0 1 0 C0.95875 1.11375 0.9175 2.2275 0.875 3.375 C0.887754 10.55550137 2.02872843 16.94853856 6 23 C5.67 23.66 5.34 24.32 5 25 C-1.11484157 18.414786 -1.10879037 13.18272317 -1.1328125 4.390625 C-1 2 -1 2 0 0 Z " fill="#B1E5FB" transform="translate(253,86)"/>
<path d="M0 0 C0.33 0 0.66 0 1 0 C1.33 6.6 1.66 13.2 2 20 C2.66 20 3.32 20 4 20 C4.99 22.97 5.98 25.94 7 29 C3.93838629 27.54976193 2.30322988 26.64743678 0.84375 23.53125 C-0.27677178 18.84165886 -0.21402635 14.42557446 -0.125 9.625 C-0.11597656 8.69816406 -0.10695312 7.77132812 -0.09765625 6.81640625 C-0.07422937 4.54399923 -0.04142748 2.2721382 0 0 Z " fill="#72C8F8" transform="translate(135,72)"/>
<path d="M0 0 C0.66 0.33 1.32 0.66 2 1 C1.3503125 1.58007812 1.3503125 1.58007812 0.6875 2.171875 C-0.1478125 2.95304687 -0.1478125 2.95304687 -1 3.75 C-1.556875 4.26046875 -2.11375 4.7709375 -2.6875 5.296875 C-4.40694193 7.1696916 -4.40694193 7.1696916 -4 11 C-5.375 12.5 -5.375 12.5 -7 14 C-8.17574711 16.09989652 -8.17574711 16.09989652 -9 18 C-10.29605302 15.40789397 -9.82907205 14.54937988 -9 11.8125 C-7.21267889 6.62675142 -4.1131501 3.50462926 0 0 Z " fill="#80CFF8" transform="translate(150,364)"/>
<path d="M0 0 C4.87452354 0.45344405 7.56374937 1.47087773 11 5 C12.3798896 7.33888623 13.14149716 9.37679688 14 12 C13.67 12.99 13.34 13.98 13 15 C12.64808594 14.40832031 12.29617188 13.81664063 11.93359375 13.20703125 C8.5200408 7.74356399 5.41440255 4.46521763 0 1 C0 0.67 0 0.34 0 0 Z " fill="#A4DDFA" transform="translate(294,68)"/>
<path d="M0 0 C-0.66 0 -1.32 0 -2 0 C-2 0.99 -2 1.98 -2 3 C-3.57914015 3.53341184 -5.16354387 4.05125763 -6.75 4.5625 C-7.63171875 4.85253906 -8.5134375 5.14257812 -9.421875 5.44140625 C-12.07834316 6.01697435 -13.47031106 5.89248371 -16 5 C-14.09118566 3.96455826 -12.17260796 2.94709915 -10.25 1.9375 C-8.64898437 1.08478516 -8.64898437 1.08478516 -7.015625 0.21484375 C-3.97406463 -1.01044806 -2.95106435 -1.25348607 0 0 Z " fill="#8ED4F8" transform="translate(266,38)"/>
<path d="M0 0 C0.99 0.33 1.98 0.66 3 1 C3 1.99 3 2.98 3 4 C2.34 4 1.68 4 1 4 C1 12.91 1 21.82 1 31 C0.01 30.67 -0.98 30.34 -2 30 C-1.34 30 -0.68 30 0 30 C0 20.1 0 10.2 0 0 Z " fill="#59BCF2" transform="translate(293,386)"/>
<path d="M0 0 C0.66 0.33 1.32 0.66 2 1 C1.50886719 1.67417969 1.01773438 2.34835937 0.51171875 3.04296875 C-1.35982777 6.70384916 -1.30209194 9.22538733 -1.1875 13.3125 C-1.14689453 15.19388672 -1.14689453 15.19388672 -1.10546875 17.11328125 C-1.07066406 18.06589844 -1.03585938 19.01851563 -1 20 C-3.89237152 16.78033381 -4.3667617 14.72849266 -4.25 10.4375 C-4.23453125 9.48746094 -4.2190625 8.53742188 -4.203125 7.55859375 C-4 5 -4 5 -3 2 C-2.01 1.34 -1.02 0.68 0 0 Z " fill="#A2DFFA" transform="translate(158,378)"/>
<path d="M0 0 C1.0828125 1.11375 1.0828125 1.11375 2.1875 2.25 C7.623335 7.56503867 10.44992695 9.48813064 18 10 C18 10.33 18 10.66 18 11 C14.37 11 10.74 11 7 11 C6.67 10.01 6.34 9.02 6 8 C4.68 8 3.36 8 2 8 C2 6.68 2 5.36 2 4 C1.34 4 0.68 4 0 4 C0 2.68 0 1.36 0 0 Z " fill="#7DCBF4" transform="translate(174,282)"/>
<path d="M0 0 C-0.61746094 0.25652344 -1.23492187 0.51304688 -1.87109375 0.77734375 C-8.98667137 3.99397473 -13.79426913 8.22842882 -19 14 C-19.33 13.34 -19.66 12.68 -20 12 C-15.6787546 6.31415079 -7.94392572 -3.07506802 0 0 Z " fill="#BCEBFD" transform="translate(164,40)"/>
<path d="M0 0 C1 2 1 2 0.00390625 5.4765625 C-0.46900047 6.86197936 -0.94981644 8.24471547 -1.4375 9.625 C-1.68048828 10.33140625 -1.92347656 11.0378125 -2.17382812 11.765625 C-2.77587205 13.51273287 -3.38708017 15.25667786 -4 17 C-4.33 17 -4.66 17 -5 17 C-5.1799928 11.78020872 -4.97094808 7.92737019 -3 3 C-2.34 3 -1.68 3 -1 3 C-0.67 2.01 -0.34 1.02 0 0 Z " fill="#91D6F9" transform="translate(324,399)"/>
<path d="M0 0 C0.66 0.33 1.32 0.66 2 1 C-2.98443379 5.71930434 -7.60772382 9.39975206 -14 12 C-14.99 11.67 -15.98 11.34 -17 11 C-17 10.34 -17 9.68 -17 9 C-16.195625 8.95875 -15.39125 8.9175 -14.5625 8.875 C-8.9070108 7.48593248 -4.10674565 4.10674565 0 0 Z " fill="#ABE6FD" transform="translate(334,307)"/>
<path d="M0 0 C4.23322844 0.62045463 7.52290295 2.10523559 11.3125 4.0625 C12.38113281 4.61035156 13.44976562 5.15820312 14.55078125 5.72265625 C15.35902344 6.14417969 16.16726562 6.56570313 17 7 C14.0877003 8.21992215 13.03122531 8.01199085 10.01953125 6.85546875 C8.43205078 6.02982422 8.43205078 6.02982422 6.8125 5.1875 C5.21341797 4.37345703 5.21341797 4.37345703 3.58203125 3.54296875 C1 2 1 2 0 0 Z " fill="#AFE5FA" transform="translate(160,312)"/>
<path d="M0 0 C3.48331435 3.01887244 4.79157144 5.56909529 6 10 C7.65 9.34 9.3 8.68 11 8 C9.6875 10 9.6875 10 8 12 C7.01 12 6.02 12 5 12 C4.67 10.35 4.34 8.7 4 7 C3.34 7 2.68 7 2 7 C0 4 0 4 0 0 Z " fill="#A6E2FC" transform="translate(239,36)"/>
<path d="M0 0 C3.23861303 1.44424635 5.61969163 3.25772247 8.25 5.625 C8.95640625 6.25664062 9.6628125 6.88828125 10.390625 7.5390625 C10.92171875 8.02117188 11.4528125 8.50328125 12 9 C11.67 9.66 11.34 10.32 11 11 C8 11 8 11 6 9.3125 C3.5043607 6.42691706 1.70104148 3.40208295 0 0 Z " fill="#A1DDF9" transform="translate(223,20)"/>
<path d="M0 0 C1.60495567 0.11442461 3.20898119 0.24194694 4.8125 0.375 C5.70582031 0.44460938 6.59914062 0.51421875 7.51953125 0.5859375 C10 1 10 1 13 3 C13 3.66 13 4.32 13 5 C8.15340923 4.40895235 4.39251833 3.02055843 0 1 C0 0.67 0 0.34 0 0 Z " fill="#51B9F3" transform="translate(168,315)"/>
<path d="M0 0 C-1.55966218 0.508783 -3.12289241 1.00663469 -4.6875 1.5 C-5.99267578 1.91765625 -5.99267578 1.91765625 -7.32421875 2.34375 C-9.99391677 2.99850805 -12.26396684 3.11831495 -15 3 C-15 2.01 -15 1.02 -15 0 C-13.25093341 -0.19601608 -11.50068154 -0.38147403 -9.75 -0.5625 C-8.77546875 -0.66691406 -7.8009375 -0.77132812 -6.796875 -0.87890625 C-4.2368648 -0.98974468 -2.41851841 -0.77738092 0 0 Z " fill="#97D8F8" transform="translate(206,149)"/>
<path d="M0 0 C1.175625 0.309375 2.35125 0.61875 3.5625 0.9375 C10.28196405 2.45584043 17.14044366 2.6565703 24 3 C24 3.33 24 3.66 24 4 C21.31222198 4.0544207 18.62556788 4.09387266 15.9375 4.125 C15.18533203 4.14175781 14.43316406 4.15851563 13.65820312 4.17578125 C8.70672291 4.21865121 4.69585549 3.58399375 0 2 C0 1.34 0 0.68 0 0 Z " fill="#5EBCF3" transform="translate(161,120)"/>
<path d="M0 0 C0.33 0.66 0.66 1.32 1 2 C0.69320312 2.87914063 0.38640625 3.75828125 0.0703125 4.6640625 C-1.13506304 8.42096292 -1.19922173 11.44124811 -1.125 15.375 C-1.10695312 16.62023437 -1.08890625 17.86546875 -1.0703125 19.1484375 C-1.04710937 20.08945313 -1.02390625 21.03046875 -1 22 C-1.66 21.67 -2.32 21.34 -3 21 C-3.08132187 18.43685501 -3.14064175 15.87631582 -3.1875 13.3125 C-3.21263672 12.59126953 -3.23777344 11.87003906 -3.26367188 11.12695312 C-3.32672457 6.52410662 -2.77816458 3.69692767 0 0 Z " fill="#4EB5F0" transform="translate(254,80)"/>
<path d="M0 0 C0.67844036 2.11070334 1.11681652 3.54107796 0.5625 5.71875 C-0.17783021 8.72120031 -0.3466927 11.66703855 -0.5625 14.75 C-0.64628906 15.92046875 -0.73007813 17.0909375 -0.81640625 18.296875 C-0.87699219 19.18890625 -0.93757812 20.0809375 -1 21 C-1.33 21 -1.66 21 -2 21 C-2.2498764 18.4380143 -2.47541116 15.87765869 -2.6875 13.3125 C-2.76033203 12.59126953 -2.83316406 11.87003906 -2.90820312 11.12695312 C-3.2715846 6.44574473 -2.87521097 3.74738294 0 0 Z " fill="#4BB3F3" transform="translate(136,64)"/>
<path d="M0 0 C-2.62035018 1.36389525 -5.24556999 2.71632173 -7.875 4.0625 C-8.99455078 4.64741211 -8.99455078 4.64741211 -10.13671875 5.24414062 C-10.85214844 5.60830078 -11.56757812 5.97246094 -12.3046875 6.34765625 C-13.2944458 6.85824585 -13.2944458 6.85824585 -14.30419922 7.37915039 C-14.86381348 7.58403076 -15.42342773 7.78891113 -16 8 C-16.66 7.67 -17.32 7.34 -18 7 C-6.14231263 -1.95376393 -6.14231263 -1.95376393 0 0 Z " fill="#58B8EF" transform="translate(136,282)"/>
<path d="M0 0 C3.3 0.33 6.6 0.66 10 1 C10.33 3.31 10.66 5.62 11 8 C10.113125 7.21625 9.22625 6.4325 8.3125 5.625 C5.69279481 3.42843009 3.28284399 2.06209659 0 1 C0 0.67 0 0.34 0 0 Z " fill="#62BFF2" transform="translate(203,43)"/>
<path d="M0 0 C-1.2065625 0.4021875 -1.2065625 0.4021875 -2.4375 0.8125 C-3.283125 1.204375 -4.12875 1.59625 -5 2 C-5.33 2.99 -5.66 3.98 -6 5 C-8.64 5.33 -11.28 5.66 -14 6 C-11.86197902 3.67490219 -9.81401863 2.17832764 -7 0.75 C-6.319375 0.39421875 -5.63875 0.0384375 -4.9375 -0.328125 C-3 -1 -3 -1 0 0 Z " fill="#A0DDF9" transform="translate(154,11)"/>
<path d="M0 0 C0.66 0 1.32 0 2 0 C2.5321441 2.08047297 3.05031786 4.16452293 3.5625 6.25 C3.85253906 7.41015625 4.14257812 8.5703125 4.44140625 9.765625 C4.95179964 12.72090983 5.02996165 14.24434101 4 17 C3.32389577 15.10751181 2.65949561 13.2108398 2 11.3125 C1.62875 10.25675781 1.2575 9.20101563 0.875 8.11328125 C0.0608143 5.21637944 -0.17709796 2.98299377 0 0 Z " fill="#A0DEFA" transform="translate(298,397)"/>
<path d="M0 0 C0 2.31 0 4.62 0 7 C-0.66 7 -1.32 7 -2 7 C-2.33 6.01 -2.66 5.02 -3 4 C-4.32 4 -5.64 4 -7 4 C-6.67 3.01 -6.34 2.02 -6 1 C-4 0 -4 0 0 0 Z " fill="#82CFF7" transform="translate(144,277)"/>
<path d="M0 0 C1.2989839 0.90626784 2.58893167 1.82549537 3.875 2.75 C4.59429687 3.26046875 5.31359375 3.7709375 6.0546875 4.296875 C8.08570565 6.07503547 8.97855012 7.52701607 10 10 C8.35 9.67 6.7 9.34 5 9 C5 8.34 5 7.68 5 7 C4.34 7 3.68 7 3 7 C0 2.61538462 0 2.61538462 0 0 Z " fill="#92D7F8" transform="translate(146,107)"/>
<path d="M0 0 C0.66 0.33 1.32 0.66 2 1 C1.6875 2.875 1.6875 2.875 1 5 C0.01 5.66 -0.98 6.32 -2 7 C-3.32 6.34 -4.64 5.68 -6 5 C-4.06745228 2.9754262 -2.36841312 1.57894208 0 0 Z " fill="#7BCDF9" transform="translate(298,116)"/>
<path d="M0 0 C0.33 0 0.66 0 1 0 C1.57563851 9.78585462 1.57563851 9.78585462 -2 14 C-3.31432211 14.70340572 -4.64608499 15.37619205 -6 16 C-5.47599609 15.27296875 -5.47599609 15.27296875 -4.94140625 14.53125 C-1.57638044 9.57427147 -0.32047616 5.98222157 0 0 Z " fill="#96DAFA" transform="translate(318,272)"/>
<path d="M0 0 C-0.63808594 0.27714844 -1.27617188 0.55429687 -1.93359375 0.83984375 C-2.75988281 1.20207031 -3.58617188 1.56429688 -4.4375 1.9375 C-5.26121094 2.29714844 -6.08492187 2.65679687 -6.93359375 3.02734375 C-8.94410117 3.83122323 -8.94410117 3.83122323 -10 5 C-11.99958364 5.04080783 -14.00045254 5.04254356 -16 5 C-11.53321948 1.09156705 -5.86504904 -1.93756084 0 0 Z " fill="#5CBCF2" transform="translate(100,270)"/>
<path d="M0 0 C3.73884332 2.65654657 5.64978174 4.58110387 7 9 C4.28902773 8.62607279 3.17999533 8.18642373 1.25 6.1875 C0 4 0 4 0 0 Z " fill="#93D6F6" transform="translate(335,172)"/>
<path d="M0 0 C3.7602985 0.58107632 6.53035032 1.65199496 9.8125 3.5625 C10.60269531 4.01753906 11.39289063 4.47257813 12.20703125 4.94140625 C12.79871094 5.29074219 13.39039063 5.64007813 14 6 C13.01 6.495 13.01 6.495 12 7 C9.92803369 6.26821134 7.8891448 5.44100997 5.875 4.5625 C4.77929688 4.08941406 3.68359375 3.61632812 2.5546875 3.12890625 C1.71164063 2.75636719 0.86859375 2.38382813 0 2 C0 1.34 0 0.68 0 0 Z " fill="#51B7EE" transform="translate(123,193)"/>
<path d="M0 0 C3.94120709 0.56302958 6.7508723 1.6791945 10 4 C10 4.66 10 5.32 10 6 C5.56909529 4.79157144 3.01887244 3.48331435 0 0 Z " fill="#A6E0FA" transform="translate(136,139)"/>
<path d="M0 0 C-5.445 2.475 -5.445 2.475 -11 5 C-9 1 -9 1 -6.625 -0.3125 C-4 -1 -4 -1 0 0 Z " fill="#56B8EE" transform="translate(118,291)"/>
<path d="M0 0 C2.64 0 5.28 0 8 0 C8.33 1.32 8.66 2.64 9 4 C6.03 3.01 3.06 2.02 0 1 C0 0.67 0 0.34 0 0 Z " fill="#88D0F6" transform="translate(307,190)"/>
<path d="M0 0 C7.26153846 -0.61538462 7.26153846 -0.61538462 11 2.5 C11.66 3.325 12.32 4.15 13 5 C11.02 4.34 9.04 3.68 7 3 C7 2.34 7 1.68 7 1 C4.69 1 2.38 1 0 1 C0 0.67 0 0.34 0 0 Z " fill="#79CAF6" transform="translate(281,63)"/>
<path d="M0 0 C-0.5625 1.875 -0.5625 1.875 -2 4 C-5.625 5.25 -5.625 5.25 -9 6 C-3.15384615 0 -3.15384615 0 0 0 Z " fill="#55B9F2" transform="translate(144,16)"/>
<path d="M0 0 C0.66 0.33 1.32 0.66 2 1 C1.8125 2.875 1.8125 2.875 1 5 C-1.375 6.3125 -1.375 6.3125 -4 7 C-4.99 6.67 -5.98 6.34 -7 6 C-6.030625 5.566875 -5.06125 5.13375 -4.0625 4.6875 C-0.72268235 3.2985139 -0.72268235 3.2985139 0 0 Z " fill="#77CAF9" transform="translate(180,396)"/>
<path d="M0 0 C-1.6210103 0.69685498 -3.24696066 1.38222861 -4.875 2.0625 C-5.77992188 2.44535156 -6.68484375 2.82820312 -7.6171875 3.22265625 C-10 4 -10 4 -12 3 C-4.8 -1.6 -4.8 -1.6 0 0 Z " fill="#5AB9EF" transform="translate(212,145)"/>
<path d="M0 0 C1.99097846 2.98646769 2.94124926 5.59687262 4 9 C2.35 8.01 0.7 7.02 -1 6 C-0.67 4.02 -0.34 2.04 0 0 Z " fill="#9BDBF8" transform="translate(138,92)"/>
<path d="M0 0 C0.66 0 1.32 0 2 0 C1.45276317 3.37462715 0.9451 5.08235 -1 8 C-1.66 7.34 -2.32 6.68 -3 6 C-2.67 5.01 -2.34 4.02 -2 3 C-1.34 3.33 -0.68 3.66 0 4 C0 2.68 0 1.36 0 0 Z " fill="#4CB6F3" transform="translate(60,291)"/>
<path d="M0 0 C0.33 0.66 0.66 1.32 1 2 C0.25 4.0625 0.25 4.0625 -1 6 C-1.99 6.33 -2.98 6.66 -4 7 C-3.6875 4.625 -3.6875 4.625 -3 2 C-2.01 1.34 -1.02 0.68 0 0 Z " fill="#78C9F3" transform="translate(121,35)"/>
</svg>
